<svg id="bg" xmlns="http://www.w3.org/2000/svg" viewBox="0 0 1160.32 484"><defs><style>.cls-1{fill:#5e7f7e;}.cls-2{fill:#acefed;}.cls-3{fill:#648975;}.cls-4{fill:#b5f8d5;}.cls-5{fill:#868686;}.cls-6{fill:#575756;}.cls-7{fill:#cececc;}.cls-8{font-size:18px;fill:#1d1d1b;font-family:Open Sans;}</style></defs><title>modellen_guide</title><path class="cls-1" d="M1121.41,449.74H42.51c-7.43,0-13.51-3-13.51-6.57v-25.9L141.62,252.47c0-3.61,6.08-6.57,13.51-6.57h853.65c7.43,0,13.51,3,13.51,6.57l112.62,164.79v25.9C1134.92,446.79,1128.84,449.74,1121.41,449.74Z" transform="translate(0.32)"/><path class="cls-2" d="M1121.41,423.84H42.51c-7.43,0-13.51-3-13.51-6.57l112.62-190.7c0-3.61,6.08-6.57,13.51-6.57h853.65c7.43,0,13.51,3,13.51,6.57l112.62,190.7C1134.92,420.88,1128.84,423.84,1121.41,423.84Z" transform="translate(0.32)"/><path class="cls-3" d="M999.23,337.12c0,18.66-186.82,33.79-417.27,33.79s-417.27-15.13-417.27-33.79V316.85c0-21.77,232.4-13.51,417.27-13.51,185.24,0,417.27-8.26,417.27,13.51v20.27Z" transform="translate(0.32)"/><ellipse class="cls-4" cx="582.28" cy="316.85" rx="417.27" ry="33.79"/><g id="user"><path id="user-2" data-name="user" class="cls-5" d="M416.86,300.39c-1.93-1.1-14.53-8.55-21-11.17V277.89c1.87-1.37,3-3.47,3-6.67v-9c0-7.42-4.5-13.5-13.5-13.5s-13.5,6.08-13.5,13.5v9c0,3.23,1.13,5.34,3,6.7v11.3c-6.1,2.62-19.07,10.07-21,11.17-2.4,1.37-3,2.66-3,5.82v7.05a1.5,1.5,0,0,0,1.5,1.5h66a1.5,1.5,0,0,0,1.5-1.5v-7.05C419.86,303.05,419.26,301.75,416.86,300.39Z" transform="translate(0.32)"/></g><g id="user-3" data-name="user"><path id="user-4" data-name="user" class="cls-6" d="M797.86,300.39c-1.93-1.1-14.53-8.55-21-11.17V277.89c1.87-1.37,3-3.47,3-6.67v-9c0-7.42-4.5-13.5-13.5-13.5s-13.5,6.08-13.5,13.5v9c0,3.23,1.13,5.34,3,6.7v11.3c-6.1,2.62-19.07,10.07-21,11.17-2.4,1.37-3,2.66-3,5.82v7.05a1.5,1.5,0,0,0,1.5,1.5h66a1.5,1.5,0,0,0,1.5-1.5v-7.05C800.86,303.05,800.26,301.75,797.86,300.39Z" transform="translate(0.32)"/></g><g id="girl"><path class="cls-5" d="M360.26,303.82c-2.2-1.32-10.39-7.44-16.39-10.47v-6.06l7.47-2.77,6.19,9.4,6.91-6.95L354,283.5l-4.12-7.74v-12c-0.88-7.81-7-15-15-15a14.84,14.84,0,0,0-15,15v12l-4.11,7.74L305.32,287l6.91,6.95,6.18-9.4,7.45,2.77v6.06c-6,3-14.18,9.14-16.38,10.47-5.26,3.16-4.59,7.95-4.59,7.95h0v1.5a1.5,1.5,0,0,0,1.5,1.5h57a1.5,1.5,0,0,0,1.5-1.5v-1.5S365.52,307,360.26,303.82Z" transform="translate(0.32)"/></g><g id="girl-2" data-name="girl"><path class="cls-6" d="M320.26,303.82c-2.2-1.32-10.39-7.44-16.39-10.47v-6.06l7.47-2.77,6.19,9.4,6.91-6.95L314,283.5l-4.12-7.74v-12c-0.88-7.81-7-15-15-15a14.84,14.84,0,0,0-15,15v12l-4.11,7.74L265.32,287l6.91,6.95,6.18-9.4,7.45,2.77v6.06c-6,3-14.18,9.14-16.38,10.47-5.26,3.16-4.59,7.95-4.59,7.95h0v1.5a1.5,1.5,0,0,0,1.5,1.5h57a1.5,1.5,0,0,0,1.5-1.5v-1.5S325.52,307,320.26,303.82Z" transform="translate(0.32)"/></g><g id="girl-3" data-name="girl"><path class="cls-5" d="M840.26,303.82c-2.2-1.32-10.39-7.44-16.39-10.47v-6.06l7.47-2.77,6.19,9.4,6.91-6.95L834,283.5l-4.12-7.74v-12c-0.88-7.81-7-15-15-15a14.84,14.84,0,0,0-15,15v12l-4.11,7.74L785.32,287l6.91,6.95,6.18-9.4,7.45,2.77v6.06c-6,3-14.18,9.14-16.38,10.47-5.26,3.16-4.59,7.95-4.59,7.95h0v1.5a1.5,1.5,0,0,0,1.5,1.5h57a1.5,1.5,0,0,0,1.5-1.5v-1.5S845.52,307,840.26,303.82Z" transform="translate(0.32)"/></g><g id="girl-4" data-name="girl"><path class="cls-5" d="M893.26,303.82c-2.2-1.32-10.39-7.44-16.39-10.47v-6.06l7.47-2.77,6.19,9.4,6.91-6.95L887,283.5l-4.12-7.74v-12c-0.88-7.81-7-15-15-15a14.84,14.84,0,0,0-15,15v12l-4.11,7.74L838.32,287l6.91,6.95,6.18-9.4,7.45,2.77v6.06c-6,3-14.18,9.14-16.38,10.47-5.26,3.16-4.59,7.95-4.59,7.95h0v1.5a1.5,1.5,0,0,0,1.5,1.5h57a1.5,1.5,0,0,0,1.5-1.5v-1.5S898.52,307,893.26,303.82Z" transform="translate(0.32)"/></g><g id="right-arrow"><path class="cls-6" d="M586.7,308.31V292.76H541.24a1.57,1.57,0,0,1-1.54-1.54V276.3a1.57,1.57,0,0,1,1.54-1.53H586.7V259.22c0-.83.56-1.09,1.21-0.58l31.28,24.21a1.1,1.1,0,0,1,0,1.83l-31.27,24.21C587.27,309.39,586.7,309.13,586.7,308.31Z" transform="translate(0.32)"/></g><g id="chat"><path class="cls-6" d="M419.13,194.27c0,16.18-18.84,29.3-42.09,29.3a58.08,58.08,0,0,1-17-2.5L342.9,231.62c-0.85.44-1.33,0-1.08-.88l4-16.81c-6.77-5.2-10.89-12.1-10.89-19.66,0-16.18,18.85-29.3,42.1-29.3S419.13,178.09,419.13,194.27Z" transform="translate(0.32)"/></g><path class="cls-6" d="M929.87,123.4v9l-3,15h27v6l-3,3-12,18h-15l-6-3h-6v-24l9-12,6-12h3m0-6h-3a6,6,0,0,0-5.37,3.32l-5.76,11.52-8.68,11.57a6,6,0,0,0-1.2,3.6v24a6,6,0,0,0,6,6h4.58l4.73,2.37a6,6,0,0,0,2.68.63h15a6,6,0,0,0,5-2.67l11.67-17.5,2.58-2.58a6,6,0,0,0,1.76-4.24v-6a6,6,0,0,0-6-6H934.19s1.68-8.6,1.68-9v-9a6,6,0,0,0-6-6h0Zm-30,24h-12v39h12a3,3,0,0,0,3-3v-33A3,3,0,0,0,899.87,141.4Z" transform="translate(0.32)"/><rect class="cls-7" x="96.94" y="381.5" width="132.49" height="53" rx="12" ry="12"/><rect class="cls-7" x="365.94" y="330.5" width="132.49" height="53" rx="12" ry="12"/><rect class="cls-7" x="156.43" y="228.76" width="132.49" height="53" rx="12" ry="12"/><rect class="cls-7" x="233.2" y="127.9" width="132.49" height="53" rx="12" ry="12"/><rect class="cls-7" x="492.53" y="192.89" width="162.49" height="53" rx="12" ry="12"/><rect class="cls-7" x="706.71" y="197.26" width="132.49" height="53" rx="12" ry="12"/><rect class="cls-7" x="852.62" y="197.26" width="132.49" height="53" rx="12" ry="12"/><rect class="cls-7" x="763.62" y="117.9" width="132.49" height="53" rx="12" ry="12"/><text class="cls-8" transform="translate(178.32 262.26)">AFSENDER</text><text class="cls-8" transform="translate(268.92 161.4)">SPROG</text><text class="cls-8" transform="translate(390.31 365.38)">SITUATION</text><text class="cls-8" transform="translate(869.2 228.77)">MODTAGER</text><text class="cls-8" transform="translate(731.87 228.76)">ADRESSAT</text><text class="cls-8" transform="translate(788.86 151.4)">REAKTION</text><text class="cls-8" transform="translate(514.18 225.38)">MEDIE/KANAL</text><text class="cls-8" transform="translate(122.31 416.38)">SAMFUND</text><rect width="9" height="9" transform="translate(9.32 9) rotate(180)"/><rect x="1151.32" y="475" width="9" height="9"/><rect y="475" width="9" height="9"/><rect x="1151.32" width="9" height="9"/></svg>